<svg width="151" height="172" viewBox="0 0 151 172" fill="none" xmlns="http://www.w3.org/2000/svg">
<path d="M0.248657 44L75.2487 87V172L0.248657 129V44Z" fill="#EBF4FE"/>
<path d="M150.249 44L75.2487 87V172L150.249 129V44Z" fill="#EBF4FE"/>
<path d="M75.2487 87L0.248657 44L75.2487 0L150.249 44L75.2487 87Z" fill="#EBF4FE"/>
<path d="M0.248657 44L75.2487 87" stroke="#C6DFFE" stroke-dasharray="4 4"/>
<path d="M150.249 44L75.2487 87" stroke="#C6DFFE" stroke-dasharray="4 4"/>
<path d="M75.2487 87V172" stroke="#C6DFFE" stroke-dasharray="4 4"/>
<path d="M76.7487 129.866L38.7487 108.5L94.4987 76.0371L76.7487 129.866Z" fill="#73B4FA"/>
<path d="M76.7487 129.866L114.749 108.5L94.4987 76.0371L76.7487 129.866Z" fill="#DFEEFF"/>
<path d="M114.249 65.1218L114.747 108.493L94.4967 76.0303L114.249 65.1218Z" fill="#A5CEFA"/>
<path d="M114.249 65.1267L77.1024 44.5L94.4967 76.0352L114.249 65.1267Z" fill="#6BA8FD"/>
<path d="M40.2487 65.7224L77.1024 44.5L94.4967 76.0352L40.2487 65.7224Z" fill="#5D9EFD"/>
<path d="M40.2487 65.7227L38.7487 108.5L94.4967 76.0354L40.2487 65.7227Z" fill="#277EFF"/>
<path d="M76.7487 129.866L38.7487 108.5L94.4987 76.0371L76.7487 129.866Z" fill="#73B4FA"/>
<path d="M76.7487 129.866L114.749 108.5L94.4987 76.0371L76.7487 129.866Z" fill="#DFEEFF"/>
<path d="M114.249 65.1218L114.747 108.493L94.4967 76.0303L114.249 65.1218Z" fill="#A5CEFA"/>
<path d="M114.249 65.1267L77.1024 44.5L94.4967 76.0352L114.249 65.1267Z" fill="#6BA8FD"/>
<path d="M40.2487 65.7224L77.1024 44.5L94.4967 76.0352L40.2487 65.7224Z" fill="#5D9EFD"/>
<path d="M40.2487 65.7227L38.7487 108.5L94.4967 76.0354L40.2487 65.7227Z" fill="#277EFF"/>
<path d="M94.4987 76.0371L85.6237 102.952L67.3782 91.8292L94.4987 76.0371Z" fill="#3A69FD"/>
<path d="M104.624 92.2686L94.4987 76.0371L85.6237 102.952L104.624 92.2686Z" fill="#BFDDFD"/>
<path d="M94.4967 76.0304L104.373 70.5762L104.622 92.2618L94.4967 76.0304Z" fill="#89BEFF"/>
<path d="M85.7995 60.2676L94.4967 76.0352L104.373 70.5809L85.7995 60.2676Z" fill="#4683FB"/>
<path d="M94.4967 76.0352L67.3727 70.8788L85.7995 60.2676L94.4967 76.0352Z" fill="#0067FF"/>
<path d="M94.4967 76.0353L67.3727 70.8789V91.8308L94.4967 76.0353Z" fill="#2C51FB"/>
<path d="M31.2487 60.7061L39.7192 65.4487V74.8237L31.2487 70.0811V60.7061Z" fill="#3552FB"/>
<g filter="url(#filter0_f_3105_192)">
<path d="M39.2487 65.7246V74.0205L31.7194 69.8057V61.5078L39.2487 65.7246Z" stroke="#232EF9" stroke-width="0.941176"/>
</g>
<path d="M39.7192 65.4118L31.2487 60.76L39.2487 56L47.2487 60.76L39.7192 65.4118Z" fill="#4793FF"/>
<g filter="url(#filter1_f_3105_192)">
<path d="M46.3414 60.7666L39.7057 64.8672L32.1949 60.7432L39.2487 56.5469L46.3414 60.7666Z" stroke="#277EFF" stroke-width="0.941176"/>
</g>
<path d="M47.2487 60.7061L39.7192 65.4487V74.8237L47.2487 70.0811V60.7061Z" fill="#CEE7FF"/>
<g filter="url(#filter2_f_3105_192)">
<path d="M40.1901 65.708V73.9707L46.778 69.8203V61.5586L40.1901 65.708Z" stroke="white" stroke-width="0.941176"/>
</g>
<path d="M34.2487 105.235L40.0722 108.496V114.941L34.2487 111.681V105.235Z" fill="#3552FB"/>
<g filter="url(#filter3_f_3105_192)">
<path d="M39.7487 108.686V114.389L34.5719 111.49V105.787L39.7487 108.686Z" stroke="#232EF9" stroke-width="0.647059"/>
</g>
<path d="M40.0722 108.471L34.2487 105.272L39.7487 102L45.2487 105.272L40.0722 108.471Z" fill="#4793FF"/>
<g filter="url(#filter4_f_3105_192)">
<path d="M44.6237 105.277L40.0621 108.096L34.899 105.261L39.7487 102.376L44.6237 105.277Z" stroke="#277EFF" stroke-width="0.647059"/>
</g>
<path d="M45.2487 105.235L40.0722 108.496V114.941L45.2487 111.681V105.235Z" fill="#CEE7FF"/>
<g filter="url(#filter5_f_3105_192)">
<path d="M40.3961 108.674V114.354L44.9254 111.502V105.82L40.3961 108.674Z" stroke="white" stroke-width="0.647059"/>
</g>
<path d="M106.249 103.706L114.719 108.449V117.824L106.249 113.081V103.706Z" fill="#3552FB"/>
<g filter="url(#filter6_f_3105_192)">
<path d="M114.249 108.725V117.021L106.719 112.806V104.508L114.249 108.725Z" stroke="#232EF9" stroke-width="0.941176"/>
</g>
<path d="M114.719 108.412L106.249 103.76L114.249 99L122.249 103.76L114.719 108.412Z" fill="#4793FF"/>
<g filter="url(#filter7_f_3105_192)">
<path d="M121.341 103.767L114.706 107.867L107.195 103.743L114.249 99.5469L121.341 103.767Z" stroke="#277EFF" stroke-width="0.941176"/>
</g>
<path d="M122.249 103.706L114.719 108.449V117.824L122.249 113.081V103.706Z" fill="#CEE7FF"/>
<g filter="url(#filter8_f_3105_192)">
<path d="M115.19 108.708V116.971L121.778 112.82V104.559L115.19 108.708Z" stroke="white" stroke-width="0.941176"/>
</g>
<path d="M71.2487 41.5293L77.6016 45.0863V52.1175L71.2487 48.5605V41.5293Z" fill="#3552FB"/>
<g filter="url(#filter9_f_3105_192)">
<path d="M77.2487 45.293V51.5146L71.6012 48.3535V42.1309L77.2487 45.293Z" stroke="#232EF9" stroke-width="0.705882"/>
</g>
<path d="M77.6016 45.0588L71.2487 41.57L77.2487 38L83.2487 41.57L77.6016 45.0588Z" fill="#4793FF"/>
<g filter="url(#filter10_f_3105_192)">
<path d="M82.567 41.5752L77.5905 44.6494L71.9586 41.5576L77.2487 38.4111L82.567 41.5752Z" stroke="#277EFF" stroke-width="0.705882"/>
</g>
<path d="M83.2487 41.5293L77.6016 45.0863V52.1175L83.2487 48.5605V41.5293Z" fill="#CEE7FF"/>
<g filter="url(#filter11_f_3105_192)">
<path d="M77.9547 45.2803V51.4775L82.8961 48.3643V42.168L77.9547 45.2803Z" stroke="white" stroke-width="0.705882"/>
</g>
<path d="M71.2487 126.529L77.6016 130.086V137.118L71.2487 133.561V126.529Z" fill="#3552FB"/>
<g filter="url(#filter12_f_3105_192)">
<path d="M77.2487 130.293V136.515L71.6012 133.354V127.131L77.2487 130.293Z" stroke="#232EF9" stroke-width="0.705882"/>
</g>
<path d="M77.6016 130.059L71.2487 126.57L77.2487 123L83.2487 126.57L77.6016 130.059Z" fill="#4793FF"/>
<g filter="url(#filter13_f_3105_192)">
<path d="M82.567 126.575L77.5905 129.649L71.9586 126.558L77.2487 123.411L82.567 126.575Z" stroke="#277EFF" stroke-width="0.705882"/>
</g>
<path d="M83.2487 126.529L77.6016 130.086V137.118L83.2487 133.561V126.529Z" fill="#CEE7FF"/>
<g filter="url(#filter14_f_3105_192)">
<path d="M77.9547 130.28V136.478L82.8961 133.364V127.168L77.9547 130.28Z" stroke="white" stroke-width="0.705882"/>
</g>
<path d="M109.249 63.6465L114.013 66.3142V71.5877L109.249 68.9199V63.6465Z" fill="#3552FB"/>
<g filter="url(#filter15_f_3105_192)">
<path d="M113.749 66.4688V71.1357L109.513 68.7637V64.0977L113.749 66.4688Z" stroke="#232EF9" stroke-width="0.529412"/>
</g>
<path d="M114.013 66.2941L109.249 63.6775L113.749 61L118.249 63.6775L114.013 66.2941Z" fill="#4793FF"/>
<g filter="url(#filter16_f_3105_192)">
<path d="M117.737 63.6816L114.005 65.9873L109.782 63.668L113.749 61.3076L117.737 63.6816Z" stroke="#277EFF" stroke-width="0.529412"/>
</g>
<path d="M118.249 63.6465L114.013 66.3142V71.5877L118.249 68.9199V63.6465Z" fill="#CEE7FF"/>
<g filter="url(#filter17_f_3105_192)">
<path d="M114.278 66.46V71.1074L117.984 68.7734V64.125L114.278 66.46Z" stroke="white" stroke-width="0.529412"/>
</g>
<defs>
<filter id="filter0_f_3105_192" x="30.9663" y="60.4237" width="9.03541" height="14.6819" filterUnits="userSpaceOnUse" color-interpolation-filters="sRGB">
<feFlood flood-opacity="0" result="BackgroundImageFix"/>
<feBlend mode="normal" in="SourceGraphic" in2="BackgroundImageFix" result="shape"/>
<feGaussianBlur stdDeviation="0.141176" result="effect1_foregroundBlur_3105_192"/>
</filter>
<filter id="filter1_f_3105_192" x="30.9663" y="55.7176" width="16.5647" height="9.97682" filterUnits="userSpaceOnUse" color-interpolation-filters="sRGB">
<feFlood flood-opacity="0" result="BackgroundImageFix"/>
<feBlend mode="normal" in="SourceGraphic" in2="BackgroundImageFix" result="shape"/>
<feGaussianBlur stdDeviation="0.141176" result="effect1_foregroundBlur_3105_192"/>
</filter>
<filter id="filter2_f_3105_192" x="39.437" y="60.4237" width="8.094" height="14.6819" filterUnits="userSpaceOnUse" color-interpolation-filters="sRGB">
<feFlood flood-opacity="0" result="BackgroundImageFix"/>
<feBlend mode="normal" in="SourceGraphic" in2="BackgroundImageFix" result="shape"/>
<feGaussianBlur stdDeviation="0.141176" result="effect1_foregroundBlur_3105_192"/>
</filter>
<filter id="filter3_f_3105_192" x="34.0545" y="105.041" width="6.21172" height="10.0943" filterUnits="userSpaceOnUse" color-interpolation-filters="sRGB">
<feFlood flood-opacity="0" result="BackgroundImageFix"/>
<feBlend mode="normal" in="SourceGraphic" in2="BackgroundImageFix" result="shape"/>
<feGaussianBlur stdDeviation="0.0970588" result="effect1_foregroundBlur_3105_192"/>
</filter>
<filter id="filter4_f_3105_192" x="34.0545" y="101.806" width="11.3882" height="6.85894" filterUnits="userSpaceOnUse" color-interpolation-filters="sRGB">
<feFlood flood-opacity="0" result="BackgroundImageFix"/>
<feBlend mode="normal" in="SourceGraphic" in2="BackgroundImageFix" result="shape"/>
<feGaussianBlur stdDeviation="0.0970588" result="effect1_foregroundBlur_3105_192"/>
</filter>
<filter id="filter5_f_3105_192" x="39.878" y="105.041" width="5.56475" height="10.0943" filterUnits="userSpaceOnUse" color-interpolation-filters="sRGB">
<feFlood flood-opacity="0" result="BackgroundImageFix"/>
<feBlend mode="normal" in="SourceGraphic" in2="BackgroundImageFix" result="shape"/>
<feGaussianBlur stdDeviation="0.0970588" result="effect1_foregroundBlur_3105_192"/>
</filter>
<filter id="filter6_f_3105_192" x="105.966" y="103.424" width="9.03541" height="14.6819" filterUnits="userSpaceOnUse" color-interpolation-filters="sRGB">
<feFlood flood-opacity="0" result="BackgroundImageFix"/>
<feBlend mode="normal" in="SourceGraphic" in2="BackgroundImageFix" result="shape"/>
<feGaussianBlur stdDeviation="0.141176" result="effect1_foregroundBlur_3105_192"/>
</filter>
<filter id="filter7_f_3105_192" x="105.966" y="98.7176" width="16.5647" height="9.97682" filterUnits="userSpaceOnUse" color-interpolation-filters="sRGB">
<feFlood flood-opacity="0" result="BackgroundImageFix"/>
<feBlend mode="normal" in="SourceGraphic" in2="BackgroundImageFix" result="shape"/>
<feGaussianBlur stdDeviation="0.141176" result="effect1_foregroundBlur_3105_192"/>
</filter>
<filter id="filter8_f_3105_192" x="114.437" y="103.424" width="8.094" height="14.6819" filterUnits="userSpaceOnUse" color-interpolation-filters="sRGB">
<feFlood flood-opacity="0" result="BackgroundImageFix"/>
<feBlend mode="normal" in="SourceGraphic" in2="BackgroundImageFix" result="shape"/>
<feGaussianBlur stdDeviation="0.141176" result="effect1_foregroundBlur_3105_192"/>
</filter>
<filter id="filter9_f_3105_192" x="71.0369" y="41.3175" width="6.77656" height="11.0114" filterUnits="userSpaceOnUse" color-interpolation-filters="sRGB">
<feFlood flood-opacity="0" result="BackgroundImageFix"/>
<feBlend mode="normal" in="SourceGraphic" in2="BackgroundImageFix" result="shape"/>
<feGaussianBlur stdDeviation="0.105882" result="effect1_foregroundBlur_3105_192"/>
</filter>
<filter id="filter10_f_3105_192" x="71.0369" y="37.7882" width="12.4235" height="7.48212" filterUnits="userSpaceOnUse" color-interpolation-filters="sRGB">
<feFlood flood-opacity="0" result="BackgroundImageFix"/>
<feBlend mode="normal" in="SourceGraphic" in2="BackgroundImageFix" result="shape"/>
<feGaussianBlur stdDeviation="0.105882" result="effect1_foregroundBlur_3105_192"/>
</filter>
<filter id="filter11_f_3105_192" x="77.3899" y="41.3175" width="6.0705" height="11.0114" filterUnits="userSpaceOnUse" color-interpolation-filters="sRGB">
<feFlood flood-opacity="0" result="BackgroundImageFix"/>
<feBlend mode="normal" in="SourceGraphic" in2="BackgroundImageFix" result="shape"/>
<feGaussianBlur stdDeviation="0.105882" result="effect1_foregroundBlur_3105_192"/>
</filter>
<filter id="filter12_f_3105_192" x="71.0369" y="126.318" width="6.77656" height="11.0114" filterUnits="userSpaceOnUse" color-interpolation-filters="sRGB">
<feFlood flood-opacity="0" result="BackgroundImageFix"/>
<feBlend mode="normal" in="SourceGraphic" in2="BackgroundImageFix" result="shape"/>
<feGaussianBlur stdDeviation="0.105882" result="effect1_foregroundBlur_3105_192"/>
</filter>
<filter id="filter13_f_3105_192" x="71.0369" y="122.788" width="12.4235" height="7.48212" filterUnits="userSpaceOnUse" color-interpolation-filters="sRGB">
<feFlood flood-opacity="0" result="BackgroundImageFix"/>
<feBlend mode="normal" in="SourceGraphic" in2="BackgroundImageFix" result="shape"/>
<feGaussianBlur stdDeviation="0.105882" result="effect1_foregroundBlur_3105_192"/>
</filter>
<filter id="filter14_f_3105_192" x="77.3899" y="126.318" width="6.0705" height="11.0114" filterUnits="userSpaceOnUse" color-interpolation-filters="sRGB">
<feFlood flood-opacity="0" result="BackgroundImageFix"/>
<feBlend mode="normal" in="SourceGraphic" in2="BackgroundImageFix" result="shape"/>
<feGaussianBlur stdDeviation="0.105882" result="effect1_foregroundBlur_3105_192"/>
</filter>
<filter id="filter15_f_3105_192" x="109.09" y="63.4877" width="5.0823" height="8.25905" filterUnits="userSpaceOnUse" color-interpolation-filters="sRGB">
<feFlood flood-opacity="0" result="BackgroundImageFix"/>
<feBlend mode="normal" in="SourceGraphic" in2="BackgroundImageFix" result="shape"/>
<feGaussianBlur stdDeviation="0.0794118" result="effect1_foregroundBlur_3105_192"/>
</filter>
<filter id="filter16_f_3105_192" x="109.09" y="60.8412" width="9.31765" height="5.61159" filterUnits="userSpaceOnUse" color-interpolation-filters="sRGB">
<feFlood flood-opacity="0" result="BackgroundImageFix"/>
<feBlend mode="normal" in="SourceGraphic" in2="BackgroundImageFix" result="shape"/>
<feGaussianBlur stdDeviation="0.0794118" result="effect1_foregroundBlur_3105_192"/>
</filter>
<filter id="filter17_f_3105_192" x="113.854" y="63.4877" width="4.553" height="8.25905" filterUnits="userSpaceOnUse" color-interpolation-filters="sRGB">
<feFlood flood-opacity="0" result="BackgroundImageFix"/>
<feBlend mode="normal" in="SourceGraphic" in2="BackgroundImageFix" result="shape"/>
<feGaussianBlur stdDeviation="0.0794118" result="effect1_foregroundBlur_3105_192"/>
</filter>
</defs>
</svg>
