<svg width="150" height="172" viewBox="0 0 150 172" fill="none" xmlns="http://www.w3.org/2000/svg">
<path d="M0 128L75 85V0L0 43V128Z" fill="#EBF4FE"/>
<path d="M150 128L75 85V0L150 43V128Z" fill="#EBF4FE"/>
<path d="M75 85L0 128L75 172L150 128L75 85Z" fill="#DEEDFD"/>
<rect width="20" height="20" transform="matrix(0.866025 0.5 -0.866025 0.5 50.3203 90)" fill="url(#paint0_linear_3195_2)"/>
<rect width="20" height="20" transform="matrix(0.866025 0.5 0 1 33 100)" fill="#3851F7"/>
<rect width="20" height="20" transform="matrix(0.866025 -0.5 0 1 50.3203 110)" fill="#CAE3FF"/>
<circle cx="7" cy="7" r="7" transform="matrix(0.866025 0.5 -0.866025 0.5 48.1245 87)" fill="url(#paint1_linear_3195_2)"/>
<path d="M39.5513 94C39.5513 95.3668 40.5109 96.6043 42.0623 97.5V103.5C40.5109 102.604 39.5513 101.367 39.5513 100V94Z" fill="url(#paint2_linear_3195_2)"/>
<path d="M42.062 97.5C45.4101 99.433 50.8383 99.433 54.1864 97.5V103.5C50.8383 105.433 45.4101 105.433 42.062 103.5V97.5Z" fill="#CBE3FF"/>
<path d="M56.6976 94C56.6976 95.3668 55.738 96.6043 54.1865 97.5V103.5C55.738 102.604 56.6976 101.367 56.6976 100V94Z" fill="#6580E1"/>
<rect width="20" height="20" transform="matrix(0.866025 0.5 -0.866025 0.5 71.8564 70)" fill="url(#paint3_linear_3195_2)"/>
<rect width="20" height="50" transform="matrix(0.866025 0.5 0 1 54.5361 80)" fill="#3851F7"/>
<rect width="20" height="50" transform="matrix(0.866025 -0.5 0 1 71.8564 90)" fill="#CAE3FF"/>
<rect width="20" height="20" transform="matrix(0.866025 0.5 -0.866025 0.5 95.8564 58)" fill="url(#paint4_linear_3195_2)"/>
<rect width="20" height="76" transform="matrix(0.866025 0.5 0 1 78.5361 68)" fill="#3851F7"/>
<rect width="20" height="76" transform="matrix(0.866025 -0.5 0 1 95.8564 78)" fill="#CAE3FF"/>
<mask id="mask0_3195_2" style="mask-type:alpha" maskUnits="userSpaceOnUse" x="60" y="113" width="5" height="23">
<rect width="5" height="20" transform="matrix(0.866025 0.5 0 1 60 113)" fill="#D9D9D9"/>
</mask>
<g mask="url(#mask0_3195_2)">
<rect width="20" height="20" transform="matrix(0.866025 -0.5 0 1 60 113)" fill="#93AAFC"/>
<rect width="5" height="20" transform="matrix(0.866025 0.5 -0.866025 0.5 77.3203 123)" fill="#BDCBFD"/>
</g>
<mask id="mask1_3195_2" style="mask-type:alpha" maskUnits="userSpaceOnUse" x="84" y="107" width="5" height="43">
<rect width="5" height="40" transform="matrix(0.866025 0.5 0 1 84 107)" fill="#D9D9D9"/>
</mask>
<g mask="url(#mask1_3195_2)">
<rect width="20" height="40" transform="matrix(0.866025 -0.5 0 1 84 107)" fill="#93AAFC"/>
<rect width="5" height="20" transform="matrix(0.866025 0.5 -0.866025 0.5 101.32 137)" fill="#BDCBFD"/>
</g>
<mask id="mask2_3195_2" style="mask-type:alpha" maskUnits="userSpaceOnUse" x="39" y="115" width="5" height="12">
<rect width="5" height="9" transform="matrix(0.866025 0.5 0 1 39 115)" fill="#D9D9D9"/>
</mask>
<g mask="url(#mask2_3195_2)">
<rect width="20" height="9" transform="matrix(0.866025 -0.5 0 1 39 115)" fill="#93AAFC"/>
<rect width="5" height="20" transform="matrix(0.866025 0.5 -0.866025 0.5 56.3203 114)" fill="#BDCBFD"/>
</g>
<circle cx="7" cy="7" r="7" transform="matrix(0.866025 0.5 -0.866025 0.5 95.8564 55)" fill="url(#paint5_linear_3195_2)"/>
<path d="M87.2832 62C87.2832 63.3668 88.2428 64.6043 89.7942 65.5V71.5C88.2428 70.6043 87.2832 69.3668 87.2832 68V62Z" fill="url(#paint6_linear_3195_2)"/>
<path d="M89.7939 65.5C93.142 67.433 98.5703 67.433 101.918 65.5V71.5C98.5703 73.433 93.142 73.433 89.7939 71.5V65.5Z" fill="#CBE3FF"/>
<path d="M104.429 62C104.429 63.3668 103.47 64.6043 101.918 65.5V71.5C103.47 70.6043 104.429 69.3668 104.429 68V62Z" fill="#CBE3FF"/>
<circle cx="7" cy="7" r="7" transform="matrix(0.866025 0.5 -0.866025 0.5 70.1245 67)" fill="url(#paint7_linear_3195_2)"/>
<path d="M61.5513 74C61.5513 75.3668 62.5109 76.6043 64.0623 77.5V83.5C62.5109 82.6043 61.5513 81.3668 61.5513 80V74Z" fill="url(#paint8_linear_3195_2)"/>
<path d="M64.062 77.5C67.4101 79.433 72.8383 79.433 76.1864 77.5V83.5C72.8383 85.433 67.4101 85.433 64.062 83.5V77.5Z" fill="#CBE3FF"/>
<path d="M78.6976 74C78.6976 75.3668 77.738 76.6043 76.1865 77.5V83.5C77.738 82.6043 78.6976 81.3668 78.6976 80V74Z" fill="#CBE3FF"/>
<defs>
<linearGradient id="paint0_linear_3195_2" x1="5.6435" y1="13.6731" x2="18.6322" y2="12.0975" gradientUnits="userSpaceOnUse">
<stop stop-color="#539AF7"/>
<stop offset="1" stop-color="#0836F8"/>
</linearGradient>
<linearGradient id="paint1_linear_3195_2" x1="3.95045" y1="9.57117" x2="13.0425" y2="8.46823" gradientUnits="userSpaceOnUse">
<stop stop-color="#81B5FD"/>
<stop offset="1" stop-color="#CAE4FF"/>
</linearGradient>
<linearGradient id="paint2_linear_3195_2" x1="40.916" y1="103.494" x2="40.916" y2="93.9938" gradientUnits="userSpaceOnUse">
<stop stop-color="#274EF8"/>
<stop offset="1" stop-color="#444EF7"/>
</linearGradient>
<linearGradient id="paint3_linear_3195_2" x1="5.6435" y1="13.6731" x2="18.6322" y2="12.0975" gradientUnits="userSpaceOnUse">
<stop stop-color="#539AF7"/>
<stop offset="1" stop-color="#0836F8"/>
</linearGradient>
<linearGradient id="paint4_linear_3195_2" x1="5.6435" y1="13.6731" x2="18.6322" y2="12.0975" gradientUnits="userSpaceOnUse">
<stop stop-color="#539AF7"/>
<stop offset="1" stop-color="#0836F8"/>
</linearGradient>
<linearGradient id="paint5_linear_3195_2" x1="3.95045" y1="9.57117" x2="13.0425" y2="8.46823" gradientUnits="userSpaceOnUse">
<stop stop-color="#81B5FD"/>
<stop offset="1" stop-color="#CAE4FF"/>
</linearGradient>
<linearGradient id="paint6_linear_3195_2" x1="88.6479" y1="71.4938" x2="88.6479" y2="61.9938" gradientUnits="userSpaceOnUse">
<stop stop-color="#274EF8"/>
<stop offset="1" stop-color="#444EF7"/>
</linearGradient>
<linearGradient id="paint7_linear_3195_2" x1="3.95045" y1="9.57117" x2="13.0425" y2="8.46823" gradientUnits="userSpaceOnUse">
<stop stop-color="#81B5FD"/>
<stop offset="1" stop-color="#CAE4FF"/>
</linearGradient>
<linearGradient id="paint8_linear_3195_2" x1="62.916" y1="83.4938" x2="62.916" y2="73.9938" gradientUnits="userSpaceOnUse">
<stop stop-color="#274EF8"/>
<stop offset="1" stop-color="#444EF7"/>
</linearGradient>
</defs>
</svg>
