<svg width="80" height="80" viewBox="0 0 80 80" fill="none" xmlns="http://www.w3.org/2000/svg">
<g clip-path="url(#clip0_3157_841)">
<path d="M19.7313 40.0202C19.7313 46.0448 24.6605 50.9741 30.6851 50.9741C36.7097 50.9741 41.6389 46.0448 41.6389 40.0202C41.6389 33.9955 36.7097 29.0664 30.6851 29.0664C24.6605 29.0664 19.7313 33.9955 19.7313 40.0202H19.7313ZM36.162 40.0202C36.162 43.1238 33.7887 45.4971 30.6851 45.4971C27.5815 45.4971 25.2082 43.1238 25.2082 40.0202C25.2082 36.9166 27.5815 34.5433 30.6851 34.5433C33.7887 34.5433 36.162 36.9166 36.162 40.0202ZM78.8819 50.6089L71.3967 39.1073C70.3014 37.2817 68.2932 36.3689 66.285 36.3689C64.2768 36.3689 62.2686 37.4642 61.1733 39.1073L53.6881 50.6089C52.4102 52.617 52.2276 54.9904 53.323 56.9986C54.4184 58.8242 56.2441 60.1022 58.4347 60.2848V64.8488C58.4347 68.3176 61.1732 71.056 64.642 71.056H68.1106C71.5794 71.056 74.3178 68.3175 74.3178 64.8488V60.2848C76.5085 60.1022 78.3342 58.8242 79.4296 56.9986C80.3424 54.9904 80.1599 52.4345 78.8819 50.6089ZM74.5003 54.8078C74.3178 54.9904 73.9527 54.9904 73.5875 54.9904H68.6583V64.8488C68.6583 65.3965 68.2932 65.7616 67.7455 65.7616H64.2767C63.7291 65.7616 63.364 65.3965 63.364 64.8488V54.9904H58.4348C57.8871 54.9904 57.7045 54.8078 57.522 54.6252C57.3394 54.4427 57.522 53.895 57.7045 53.5299L65.1896 42.0284C65.3722 41.6633 65.7373 41.6633 65.9199 41.6633C66.1024 41.6633 66.4675 41.6633 66.6501 42.0284L74.1352 53.5299C74.6829 53.895 74.6829 54.6252 74.5003 54.8078Z" fill="white"/>
<path d="M54.4184 40.0202V38.5597C54.0532 37.6469 54.4184 36.7341 55.1486 36.3689L58.7999 34.1781C60.6255 33.0828 61.1732 30.892 60.0778 29.2489L54.6009 19.7556C53.8707 18.6603 52.7753 17.93 51.4973 17.93C50.9497 17.93 50.2194 18.1126 49.6717 18.4777L45.8379 20.6684C45.2902 21.0336 44.3773 21.0336 43.8297 20.4859C42.7343 19.7556 41.6389 19.208 40.5435 18.6602C39.9958 18.2951 39.4482 17.7474 39.4482 17.0172V12.6356C39.4482 10.6274 37.8051 8.98438 35.7969 8.98438H24.843C22.8348 8.98438 21.1918 10.6274 21.1918 12.6356V17.0172C21.1918 17.7474 20.8266 18.2951 20.0964 18.6602C19.0011 19.2079 17.9056 19.7556 16.8102 20.4859C16.2626 20.851 15.5323 21.0335 14.802 20.6684C13.3416 19.9382 10.9682 18.4777 10.9682 18.4777C10.4205 18.1126 9.6903 17.93 9.14257 17.93C7.8646 17.93 6.58671 18.6602 6.03898 19.7556L0.562101 29.2489C-0.533212 31.0745 0.196944 33.2653 1.84007 34.1781L5.49132 36.3689C6.03898 36.7341 6.40413 37.4642 6.40413 38.1945V41.8458C6.40413 42.5761 6.22155 43.3063 5.49132 43.6715L1.84007 45.8622C0.0143663 46.9576 -0.53329 49.1484 0.562101 50.7914L6.03898 60.2848C6.76929 61.3801 7.8646 62.1104 9.14257 62.1104C9.69023 62.1104 10.4205 61.9278 10.9682 61.5627L14.802 59.372C15.3497 59.0068 16.2626 59.0068 16.8102 59.5545C17.9056 60.2848 19.001 60.8324 20.0964 61.3802C20.6441 61.7452 21.1917 62.293 21.1917 63.0231V67.4047C21.1917 69.4129 22.8348 71.056 24.843 71.056H35.7969C37.8051 71.056 39.4482 69.4129 39.4482 67.4047V63.0232C39.4482 62.293 39.8134 61.7452 40.5436 61.3802C41.639 60.8325 42.7344 60.2848 43.8298 59.5545H44.0123C45.4728 59.372 46.7508 58.2766 46.7508 56.6334V56.2684C46.7508 54.6252 45.2902 53.3473 43.6472 53.5299C43.0995 53.5299 42.7344 53.7124 42.3692 53.895L41.4564 54.6252C40.1785 55.538 38.9005 56.4509 37.44 56.9986L36.3447 57.5462C35.0667 58.0939 34.1539 59.372 34.1539 60.8324V64.6663C34.1539 65.2139 33.6062 65.7616 33.0585 65.7616H27.9467C27.3991 65.7616 26.8514 65.214 26.8514 64.6663V60.8324C26.8514 59.372 25.9385 58.094 24.6605 57.5462L23.5652 56.9986C22.1047 56.4509 20.8267 55.538 19.5488 54.6252L18.6359 53.895C17.5406 52.9822 15.8975 52.9822 14.6195 53.7124L13.5242 54.2601L11.3334 55.538C10.7858 55.9032 10.0555 55.7206 9.87288 55.173L7.31694 50.7914C6.95179 50.0612 7.13437 49.3309 7.6821 49.1484L9.8728 47.8704L10.9682 47.3227C12.2462 46.5925 12.9764 45.132 12.7938 43.6715L12.6113 42.3935C12.4287 41.4807 12.4287 40.7505 12.4287 40.0202C12.4287 39.2899 12.4287 38.5597 12.6113 37.6469L12.7938 36.3689C12.9764 34.9084 12.2462 33.4479 10.9682 32.7177L9.87288 32.17L7.6821 30.892C7.13444 30.5269 6.95179 29.9792 7.31694 29.4315L9.8728 25.05C10.238 24.5023 10.7857 24.3197 11.3334 24.6848L13.5241 25.9628L14.6194 26.5105C15.8974 27.2407 17.5405 27.0581 18.6359 26.3279L19.5487 25.5977C20.8266 24.6848 22.1046 23.772 23.5651 23.2243L24.6605 22.6766C25.9384 22.129 26.8512 20.851 26.8512 19.3905V15.5566C26.8512 15.009 27.3989 14.4613 27.9466 14.4613H33.0583C33.6061 14.4613 34.1538 15.009 34.1538 15.5566V19.3905C34.1538 20.851 35.0666 22.129 36.3445 22.6766L37.4399 23.2243C38.9005 23.772 40.1784 24.6848 41.4563 25.5977L42.3691 26.3279C43.4645 27.2407 45.1076 27.2407 46.3855 26.5105L47.4809 25.9628L49.6717 24.6848C50.2194 24.3197 50.9497 24.5023 51.1322 25.05L53.6881 29.4315C54.0532 29.9791 53.8707 30.7095 53.323 30.892L51.1322 32.1699L50.0369 32.7176C48.7589 33.4479 48.0286 34.9084 48.2112 36.3689L48.3937 37.6469C48.9414 38.5597 48.9414 39.2899 48.9414 40.0202C48.9414 41.6633 50.5845 43.1237 52.2276 42.5761H52.5927C53.688 42.2109 54.4184 41.2981 54.4184 40.0202Z" fill="white"/>
</g>
<defs>
<clipPath id="clip0_3157_841">
<rect width="80" height="80" fill="white"/>
</clipPath>
</defs>
</svg>
