<svg width="80" height="80" viewBox="0 0 80 80" fill="none" xmlns="http://www.w3.org/2000/svg">
<path d="M11.0925 60.9702C19.4148 65.0564 29.0405 67.1145 39.9999 67.1145C50.9593 67.1145 60.585 65.0564 68.9073 60.9702C69.9501 60.4557 71.4842 60.086 72.6223 60.9702C72.9278 61.1879 73.1758 61.4761 73.3452 61.8102C73.5146 62.1442 73.6002 62.5142 73.5949 62.8884C73.5581 63.4563 73.372 64.0046 73.0552 64.4781C72.7384 64.9516 72.302 65.3337 71.7901 65.5859C62.5303 70.1317 51.9218 72.3996 39.9999 72.3996C28.078 72.3996 17.4696 70.1317 8.21476 65.5859C7.83143 65.3972 7.48918 65.135 7.20761 64.8144C6.92603 64.4937 6.71064 64.121 6.57375 63.7173C6.43686 63.3137 6.38115 62.8872 6.40982 62.4621C6.43849 62.037 6.55096 61.6217 6.74082 61.2399C7.11682 60.4757 8.86651 59.5565 11.0925 60.9702ZM40.9675 35.3239C43.9756 35.3239 46.372 35.9633 48.1517 37.2572C49.9265 38.546 51.1999 40.5191 51.977 43.1617L46.4722 43.7961C46.001 40.0296 42.1908 39.4301 40.9675 39.4301C39.3381 39.4301 37.5132 39.9796 36.3451 41.4483C35.0015 43.3165 34.425 44.5504 34.4049 47.7724C34.4049 51.7437 35.4778 53.7719 36.4604 54.9807C37.4481 56.1896 39.303 57.0288 40.9675 57.0288C42.2058 57.0288 44.0056 56.4943 44.7927 55.795C45.5899 55.0956 46.1464 53.8768 46.4722 52.1633H52.3029C51.6361 55.1056 50.3576 57.3236 48.4626 58.8272C46.5725 60.3258 44.0307 61.0751 40.8472 61.0751C37.2275 61.0751 34.3448 59.9411 32.194 57.6633C30.0482 55.3904 28.9754 52.2433 28.9754 48.222C28.9754 44.1558 30.0482 40.9837 32.209 38.7208C34.3648 36.4529 37.2826 35.3239 40.9675 35.3239ZM71.5143 47.7424C72.3165 48.0172 72.9682 48.5617 73.3192 49.266C74.0461 50.7197 73.3091 52.4281 71.6647 53.0775L69.2382 54.0166L68.1202 54.4362L66.0747 55.1706C65.438 55.3904 64.8414 55.5902 64.2799 55.77L62.7358 56.2296C61.0162 56.7041 59.1963 55.8549 58.6649 54.3313C58.1285 52.8028 59.091 51.1843 60.8056 50.7147L61.4574 50.5249L62.9514 50.0503L63.8037 49.7556L65.6937 49.0762L67.8495 48.257L69.0226 47.7974C69.8205 47.4858 70.7034 47.4663 71.5143 47.7424ZM10.9721 47.8024L13.2583 48.6866L15.2837 49.4359L16.1961 49.7556L17.8305 50.3051C18.3268 50.4599 18.7831 50.6048 19.1942 50.7147C20.8837 51.2042 21.8162 52.8127 21.2848 54.3164C20.7584 55.825 18.9636 56.6742 17.259 56.2296C15.7951 55.81 14.3512 55.3404 12.9274 54.8209L10.7566 54.0216L8.33007 53.0725C6.72578 52.4081 6.0239 50.7247 6.74583 49.291C7.46275 47.8523 9.34279 47.193 10.9721 47.8024ZM71.4542 34.6745C72.2563 34.9493 72.9081 35.4988 73.259 36.1981C73.9859 37.6618 73.2439 39.3652 71.6046 40.0146L69.1781 40.9537L68.0601 41.3733L66.0146 42.1077C65.3779 42.3325 64.7763 42.5323 64.2198 42.7071L62.6706 43.1717C62.1283 43.3228 61.5576 43.3432 61.0058 43.2311C60.454 43.1191 59.9369 42.8778 59.4971 42.5273C59.0881 42.2081 58.7798 41.7785 58.6091 41.2895C58.4384 40.8006 58.4125 40.273 58.5345 39.7698C58.6825 39.2531 58.9649 38.7846 59.3532 38.4118C59.7415 38.0389 60.2218 37.775 60.7455 37.6468L61.3972 37.457L62.8912 36.9824L63.7435 36.6927L65.6386 36.0083L67.7944 35.1941C68.1754 35.0442 68.5664 34.8943 68.9675 34.7295C69.7638 34.4191 70.6448 34.3996 71.4542 34.6745ZM10.912 34.7395L13.1981 35.6237L15.2235 36.373L16.131 36.6977L17.7653 37.2422C18.2667 37.402 18.7179 37.5419 19.134 37.6518C20.8235 38.1413 21.756 39.7498 21.2246 41.2535C20.6982 42.7621 18.9034 43.6163 17.1988 43.1667C15.7349 42.7471 14.291 42.2825 12.8622 41.758L10.6964 40.9587L8.26991 40.0146C6.66561 39.3452 5.96373 37.6668 6.68065 36.2281C7.40259 34.7894 9.28262 34.13 10.912 34.7395ZM39.9999 7.59961L41.2934 7.6096C43.4542 7.63458 45.5548 7.70951 47.5802 7.84938L49.9766 8.0392L52.2978 8.27898L54.5338 8.5787C65.8642 10.2322 73.5999 13.9737 73.5999 19.4836C73.5999 24.9885 65.8692 28.725 54.5338 30.3885L52.2978 30.6832L49.9766 30.923L47.5802 31.1128C42.5305 31.4442 37.4643 31.4442 32.4146 31.1128L30.0182 30.923L27.702 30.6832L25.461 30.3885C14.1306 28.73 6.3999 24.9935 6.3999 19.4836C6.3999 13.9737 14.1306 10.2272 25.461 8.57371L27.702 8.27898L30.0182 8.0392L32.4146 7.84938C34.8511 7.68953 37.3829 7.59961 39.9999 7.59961ZM39.9999 12.2503C37.8742 12.2503 35.8187 12.3003 33.8434 12.4002L31.8932 12.5151L30.0081 12.6649L28.1933 12.8448C18.9886 13.8538 12.7118 16.1267 12.7118 19.4836C12.7118 22.8355 18.9886 25.1084 28.1933 26.1225L30.0081 26.2973L31.8932 26.4472L33.8434 26.5621C37.9451 26.769 42.0547 26.769 46.1564 26.5621L48.1016 26.4472L49.9867 26.2973L51.8065 26.1225C61.0062 25.1084 67.283 22.8355 67.283 19.4786C67.283 16.1267 61.0062 13.8538 51.8065 12.8448L49.9867 12.6649L48.1016 12.5151L46.1564 12.4002C44.4564 12.3149 42.7548 12.2666 41.0527 12.2553H39.9999V12.2503Z" fill="white"/>
</svg>
