<svg width="80" height="80" viewBox="0 0 80 80" fill="none" xmlns="http://www.w3.org/2000/svg">
<path d="M57.5474 74.832H22.0005V70.2764H57.5474V74.832ZM57.5474 66.4307H22.0005V61.875H57.5474V66.4307ZM38.2329 5.19922C51.4921 5.56401 62.3406 15.8747 63.3862 29.0986H67.4087C67.5221 29.098 67.6337 29.1279 67.7319 29.1846C67.8302 29.2413 67.912 29.3233 67.9683 29.4219L67.9702 29.4229C68.0278 29.5211 68.0581 29.6332 68.0581 29.7471C68.0581 29.861 68.0278 29.973 67.9702 30.0713L61.3296 41.5732C61.273 41.6716 61.1914 41.7537 61.0933 41.8105C60.9951 41.8673 60.8834 41.8965 60.77 41.8965C60.6566 41.8965 60.545 41.8673 60.4468 41.8105C60.3486 41.7537 60.267 41.6715 60.2104 41.5732L53.5698 30.0371C53.5133 29.9391 53.4839 29.828 53.4839 29.7148C53.4839 29.6015 53.5131 29.4897 53.5698 29.3916C53.6266 29.2934 53.7089 29.2119 53.8071 29.1553C53.9052 29.0989 54.0163 29.0693 54.1294 29.0693H58.7329C57.7125 18.235 48.4688 9.80469 37.5269 9.80469H37.52C31.8415 9.8064 26.482 12.0603 22.4341 16.1553C18.3862 20.2503 16.1886 25.6332 16.2466 31.3125C16.3676 42.9242 25.914 52.3728 37.5298 52.373C42.7086 52.3841 47.7135 50.5023 51.6021 47.082C52.0452 46.6901 52.621 46.4805 53.2124 46.4971C53.8039 46.5138 54.3672 46.7554 54.7876 47.1719L54.8052 47.1895C55.0285 47.4131 55.2043 47.6798 55.3208 47.9736C55.4372 48.2673 55.4923 48.5817 55.4829 48.8975C55.4735 49.2132 55.3998 49.5243 55.2661 49.8105C55.1323 50.0969 54.9409 50.3536 54.7046 50.5635C49.967 54.7552 43.8555 57.0632 37.5298 57.0498C23.2352 57.0496 11.6001 45.4171 11.6001 31.1191C11.6049 24.3657 14.2426 17.8799 18.9526 13.04C23.6626 8.20033 30.074 5.38765 36.8247 5.19922H38.2329ZM47.8071 15.8945C48.0862 15.865 48.3686 15.9157 48.6206 16.0391C48.8724 16.1625 49.0843 16.3544 49.2319 16.5928C49.3829 16.8414 49.4595 17.1282 49.4517 17.4189C49.4438 17.7097 49.3522 17.9924 49.188 18.2324L49.1616 18.2705L49.1606 18.2715C48.4422 19.367 47.8293 20.5282 47.3296 21.7393C46.3294 24.1633 46.0382 26.316 46.4888 27.9668C48.058 33.7856 47.8567 37.8738 45.8765 40.4668C44.8317 41.8301 43.3367 42.7126 41.4321 43.0908C42.0252 44.1374 42.7078 45.1307 43.4722 46.0596C43.5987 46.2048 43.6946 46.3739 43.7554 46.5566C43.8161 46.7396 43.8403 46.9337 43.8257 47.126C43.802 47.419 43.6918 47.6983 43.5093 47.9287C43.3265 48.1593 43.0794 48.3309 42.7993 48.4209C42.5193 48.5109 42.2188 48.5154 41.936 48.4346C41.6532 48.3536 41.4005 48.1904 41.2104 47.9658C40.0124 46.5368 39.0007 44.9613 38.1997 43.2773C34.4594 42.9924 32.5337 41.1943 31.5747 39.7217C29.2595 36.2294 29.7789 31.0554 31.3228 27.4775C33.8493 21.5267 40.7829 16.6511 47.8071 15.8945ZM45.0776 19.4512C39.7235 21.0633 35.511 25.2075 34.0493 28.6191C33.008 30.9995 32.4351 34.7346 33.6294 37.3232C33.7426 37.5698 33.8752 37.807 34.0249 38.0332C34.6931 39.057 35.6636 39.7205 36.9849 40.0508C35.0285 33.0069 37.8714 27.3948 38.2085 26.7617L38.2241 26.7314C38.3197 26.5596 38.4494 26.4076 38.604 26.2861C38.7585 26.1648 38.9361 26.0756 39.1255 26.0234C39.3149 25.9713 39.5127 25.9573 39.7075 25.9824C39.9025 26.0076 40.0911 26.0713 40.2612 26.1699C40.4312 26.2686 40.5801 26.4 40.6987 26.5566C40.8173 26.7133 40.9029 26.8926 40.9517 27.083C41.0004 27.2735 41.0116 27.4725 40.9829 27.667C40.9542 27.8613 40.8863 28.0477 40.7847 28.2158C40.762 28.2612 40.7053 28.3615 40.6313 28.5137L40.5884 28.6055L40.5308 28.7285L40.4946 28.8125C40.4602 28.8864 40.4282 28.9639 40.3921 29.0479L40.2026 29.5244C40.1718 29.6051 40.1402 29.689 40.1089 29.7764V29.7891C40.077 29.8814 40.0438 29.976 40.0103 30.0742C39.9946 30.1213 39.9791 30.1696 39.9634 30.2178L39.6411 30.1221L39.9614 30.2246L39.9116 30.3818C39.8621 30.5413 39.8134 30.7042 39.7681 30.8721L39.4409 30.7881L39.7661 30.877C39.7359 30.9888 39.7059 31.1033 39.6763 31.2207L39.3472 31.1533L39.6743 31.2324C39.6138 31.4888 39.5568 31.7477 39.5063 32.0049C38.9605 34.7609 39.1769 37.6134 40.1313 40.2559C41.7321 40.076 42.833 39.5474 43.5054 38.6475C43.5464 38.5913 43.5877 38.5357 43.6255 38.4795C44.8677 36.6581 44.8801 33.4058 43.6606 28.8135L43.6323 28.7051L43.6265 28.7041C42.7557 25.5311 43.8648 22.0181 45.0776 19.4512Z" fill="white"/>
</svg>
