<svg width="80" height="80" viewBox="0 0 80 80" fill="none" xmlns="http://www.w3.org/2000/svg">
<path d="M70.8377 50.2217C71.5425 47.5995 71.8994 44.8964 71.8994 42.1817C71.8994 28.1227 62.305 15.8067 48.8413 12.219C48.3128 8.26209 44.9092 5.19922 40.7997 5.19922C36.6908 5.19922 33.2874 8.26152 32.7586 12.2178C26.5284 13.8815 20.8985 17.4827 16.7687 22.491C12.2101 28.019 9.69939 35.0122 9.69939 42.1817C9.69881 44.8971 10.0554 47.6008 10.7599 50.2237C8.83967 51.7051 7.6001 54.0234 7.6001 56.6263C7.6001 61.0889 11.2403 64.7195 15.7148 64.7195C16.8083 64.7195 17.8516 64.5012 18.8047 64.1083C24.6193 69.9055 32.5409 73.1992 40.8 73.1992C49.0636 73.1992 56.9798 69.9058 62.7946 64.108C63.7745 64.5124 64.8247 64.7202 65.8851 64.7195C70.3599 64.7195 74.0001 61.0889 74.0001 56.626C73.9998 54.0223 72.7591 51.7031 70.8377 50.2217ZM40.7997 9.48495C42.9053 9.48495 44.6178 11.1932 44.6178 13.2927C44.6178 15.3921 42.905 17.1004 40.7997 17.1004C38.6947 17.1004 36.9818 15.3921 36.9818 13.2927C36.9818 11.193 38.6944 9.48495 40.7997 9.48495ZM11.8969 56.6266C11.8969 54.5271 13.6095 52.8191 15.7145 52.8191C17.8195 52.8191 19.5321 54.5274 19.5321 56.6266C19.5321 58.7257 17.8195 60.434 15.7145 60.434C13.6095 60.434 11.8969 58.726 11.8969 56.6266ZM22.2255 61.4515C23.2686 60.0581 23.8313 58.3654 23.8295 56.6266C23.8295 55.9197 23.7375 55.234 23.5662 54.58L30.182 50.7703L28.0332 47.0588L21.4131 50.8711C19.9466 49.4268 17.9335 48.5334 15.7148 48.5334C15.3968 48.5334 15.0834 48.5537 14.7749 48.5894C14.2576 46.4925 13.9963 44.341 13.9965 42.1817C13.9965 30.2579 22.025 19.7653 33.351 16.5001C34.3205 18.7307 36.2679 20.4421 38.6511 21.0956V28.7165H42.9482V21.0961C45.3317 20.4424 47.2794 18.731 48.2489 16.5004C59.5795 19.7653 67.6025 30.245 67.6025 42.1819C67.6025 44.3562 67.3421 46.5031 66.8276 48.5894C66.5148 48.5524 66.2001 48.5336 65.8851 48.5331C63.6661 48.5331 61.6533 49.4265 60.1866 50.8711L53.5661 47.0591L51.4176 50.7706L58.0337 54.5797C57.8584 55.2479 57.7699 55.9359 57.7702 56.6266C57.7683 58.3661 58.3314 60.0593 59.3753 61.4529C54.4012 66.2178 47.7427 68.9143 40.8 68.9143C33.861 68.9141 27.199 66.2158 22.2255 61.4515ZM65.8848 60.434C63.7795 60.434 62.067 58.7257 62.067 56.6263C62.067 54.5269 63.7798 52.8186 65.8848 52.8186C67.9899 52.8186 69.7027 54.5269 69.7027 56.6263C69.7027 58.7257 67.9901 60.434 65.8848 60.434Z" fill="white"/>
<path d="M40.7998 31.5996C35.0655 31.5996 30.3999 36.1752 30.3999 41.7998C30.3999 47.4238 35.0652 51.9996 40.7998 51.9996C46.5343 51.9996 51.1999 47.4241 51.1999 41.7998C51.1996 36.1752 46.5343 31.5996 40.7998 31.5996ZM40.7998 47.7614C37.4481 47.7614 34.7209 45.087 34.7209 41.7995C34.7209 38.512 37.4478 35.8373 40.7998 35.8373C44.1517 35.8373 46.8789 38.512 46.8789 41.7995C46.8789 45.087 44.1514 47.7614 40.7998 47.7614Z" fill="white"/>
</svg>
