<svg width="50" height="50" viewBox="0 0 50 50" fill="none" xmlns="http://www.w3.org/2000/svg">
<mask id="mask0_146_275" style="mask-type:luminance" maskUnits="userSpaceOnUse" x="0" y="0" width="50" height="50">
<path d="M50 0H0V50H50V0Z" fill="white"/>
</mask>
<g mask="url(#mask0_146_275)">
<path d="M3.24609 10.3409H46.7531C48.13 10.3409 49.2423 9.25506 49.2423 7.91667C49.2423 6.57892 48.1306 5.49243 46.7531 5.49243H3.24609C1.87172 5.49243 0.756836 6.57829 0.756836 7.91667C0.756836 9.25506 1.87172 10.3409 3.24609 10.3409ZM46.7524 22.4621H3.24609C1.86856 22.4621 0.756836 23.548 0.756836 24.8863C0.756836 26.2247 1.86856 27.3106 3.24609 27.3106H46.7531C48.13 27.3106 49.2423 26.2247 49.2423 24.8863C49.2417 23.548 48.123 22.4621 46.7524 22.4621ZM46.7524 39.6319H3.24609C1.87235 39.6319 0.756836 40.7178 0.756836 42.0562C0.756836 43.3945 1.87172 44.4804 3.24609 44.4804H46.7531C48.13 44.4804 49.2423 43.3945 49.2423 42.0562C49.2417 40.7184 48.1299 39.6319 46.7524 39.6319Z" fill="#4E5969"/>
</g>
</svg>
