<svg width="42" height="42" viewBox="0 0 42 42" fill="none" xmlns="http://www.w3.org/2000/svg">
<path d="M14.3804 24.0782L14.3152 24.019L25.7039 14.4188L10.5477 20.587L4.42964 15.0121C4.25567 14.8535 4.12731 14.6504 4.05809 14.4244C3.98888 14.1983 3.98137 13.9576 4.03635 13.7276C4.09133 13.4976 4.20677 13.2868 4.37052 13.1175C4.53426 12.9481 4.74023 12.8264 4.96675 12.7653L37.3625 4.04386C37.585 3.98438 37.8192 3.98541 38.0412 4.04685C38.2632 4.10829 38.4651 4.22794 38.6264 4.39365C38.7877 4.55936 38.9026 4.76521 38.9595 4.99027C39.0164 5.21534 39.0133 5.45159 38.9504 5.67502L30.3202 36.0462C30.2593 36.261 30.1452 36.4566 29.9887 36.6146C29.8321 36.7726 29.6383 36.8878 29.4254 36.9492C29.2125 37.0107 28.9876 37.0164 28.7719 36.9659C28.5563 36.9154 28.3569 36.8103 28.1926 36.6605L19.8127 29.0256L14.3804 34.5058V24.0782Z" fill="#0F75BC"/>
</svg>
